<?xml version="1.0" encoding="UTF-8" standalone="no"?>
<!-- Created with Inkscape (http://www.inkscape.org/) -->

<svg
   width="20mm"
   height="20mm"
   viewBox="0 0 20 20"
   version="1.1"
   id="svg1"
   inkscape:version="1.4.3 (0d15f75042, 2025-12-25)"
   sodipodi:docname="infgeo_04.svg"
   xmlns:inkscape="http://www.inkscape.org/namespaces/inkscape"
   xmlns:sodipodi="http://sodipodi.sourceforge.net/DTD/sodipodi-0.dtd"
   xmlns="http://www.w3.org/2000/svg"
   xmlns:svg="http://www.w3.org/2000/svg">
  <sodipodi:namedview
     id="namedview1"
     pagecolor="#505050"
     bordercolor="#eeeeee"
     borderopacity="1"
     inkscape:showpageshadow="0"
     inkscape:pageopacity="0"
     inkscape:pagecheckerboard="true"
     inkscape:deskcolor="#505050"
     inkscape:document-units="mm"
     inkscape:clip-to-page="false"
     showguides="false"
     inkscape:zoom="11.313709"
     inkscape:cx="36.371805"
     inkscape:cy="38.846679"
     inkscape:window-width="2057"
     inkscape:window-height="1214"
     inkscape:window-x="0"
     inkscape:window-y="0"
     inkscape:window-maximized="1"
     inkscape:current-layer="layer1" />
  <defs
     id="defs1">
    <inkscape:perspective
       sodipodi:type="inkscape:persp3d"
       inkscape:vp_x="0.38713733 : 13.930933 : 1"
       inkscape:vp_y="0 : 1000 : 0"
       inkscape:vp_z="18.034533 : 16.581335 : 1"
       inkscape:persp3d-origin="10 : 6.6666667 : 1"
       id="perspective5" />
  </defs>
  <g
     inkscape:label="Layer 1"
     inkscape:groupmode="layer"
     id="layer1">
    <rect
       style="display:inline;fill:#00d400;stroke:#00d400;stroke-width:0;stroke-dasharray:none"
       id="rect32"
       width="20"
       height="20"
       x="6.3837824e-16"
       y="-1.9058829e-16" />
    <path
       style="fill:none;stroke-width:0.5;stroke-dasharray:none;stroke:#008000"
       d="m 0,17.796809 c 1.3797789,-1.590253 1.9176588,-2.970032 3.5079125,-3.203893 1.5902537,-0.233861 3.7219389,2.172243 6.4797209,1.191359 2.7577816,-0.980884 2.3368326,-3.062246 4.6286686,-3.459809 2.291836,-0.397564 3.203894,0.748355 3.484526,1.894273 C 18.381461,15.364657 20,20 20,20 v 0 0"
       id="path4" />
    <path
       style="fill:none;stroke:#008000;stroke-width:0.499999;stroke-dasharray:none"
       d="m -0.51449384,13.91472 c 1.56686764,-1.262849 1.2628485,-1.707184 3.04019084,-1.683798 1.7773425,0.02339 2.1281337,0.140316 3.5546847,0.958829 1.426551,0.818513 1.941045,0.865285 2.8531021,0.631424 0.9120574,-0.233861 1.8007282,-1.30962 2.2684502,-1.8475 0.467721,-0.53788 1.145918,-1.894273 3.04019,-2.081362 1.894273,-0.187088 3.063578,0.07016 3.741774,0.888672 0.678196,0.818512 0.992013,1.520095 1.501608,2.782943 0.509595,1.262849 1.141019,2.595855 1.141019,2.595855"
       id="path5" />
    <path
       style="fill:none;stroke:#008000;stroke-width:0.499999;stroke-dasharray:none"
       d="m 2.9934185,10.172946 c 0.1870888,0.491108 2.3386084,0.304019 3.2038936,1.122532 0.8652851,0.818513 2.0345891,1.356393 2.6660136,0.608038 C 9.4947498,11.155162 10.827757,9.0270281 11.7632,8.6528509 12.698643,8.2786735 13.517156,7.1795277 13.446998,6.6416477 13.37684,6.1037678 11.926902,5.051394 10.453579,5.4723434 8.9802559,5.8932931 8.0214265,4.0224064 6.3844008,4.6070583 4.747375,5.1917105 3.9288619,6.5714895 3.5312985,7.7174076 3.1337353,8.8633257 2.7127856,9.4012056 2.9934185,10.172946 Z"
       id="path6" />
    <path
       style="fill:none;stroke:#008000;stroke-width:0.499999;stroke-dasharray:none"
       d="M 6.8755085,6.6182615 C 5.6594321,7.0158249 4.8409193,7.9278823 5.1449382,8.5359205 5.4489574,9.1439586 7.6004771,10.079402 8.1851293,9.9156992 8.7697812,9.7519968 10.102788,8.0915848 9.8923132,7.5770911 9.6818385,7.0625972 7.7641796,6.477945 6.8755085,6.6182615 Z"
       id="path7" />
    <path
       style="fill:none;stroke:#008000;stroke-width:0.499999;stroke-dasharray:none"
       d="M -0.46772167,8.7697812 C 0.56126603,7.1795275 1.1459181,5.1449383 2.6192413,4.0224065 4.0925646,2.8998744 4.9110775,1.4733233 7.0158249,2.1515197 9.1205723,2.8297161 10.14956,3.5546848 12.207535,3.4143683 c 2.057976,-0.1403167 2.666014,1.0991458 3.133735,2.3386081 0.467722,1.2394626 1.936147,1.5434815 3.063577,1.1926904 1.127431,-0.3507912 2.245064,-0.8418989 2.619241,-1.3797788"
       id="path8" />
    <path
       style="fill:none;stroke:#008000;stroke-width:0.499999;stroke-dasharray:none"
       d="M -1.0056016,3.9756341 C 1.7305702,1.7539563 3.5546847,0.67819642 4.9812357,0.51449382 6.4077868,0.35079125 8.442376,0.53787992 10.056016,1.1926902 c 1.613639,0.6548104 4.279653,0.6781965 5.542502,0.7015825 1.262848,0.023386 0.257247,2.2684502 1.403165,2.9232606 1.145918,0.6548101 3.133735,-0.3741775 3.882089,-0.9822156"
       id="path9" />
    <path
       style="fill:none;stroke:#008000;stroke-width:0.499999;stroke-dasharray:none"
       d="m 21.468424,7.5770911 c -2.455538,0.7717406 -2.619241,1.8241145 -2.408766,2.3152221 0.210475,0.4911078 1.449937,1.9176588 2.198292,2.3853808"
       id="path10" />
    <path
       style="fill:none;stroke:#008000;stroke-width:0.499999;stroke-dasharray:none"
       d="m 21.889374,1.3096207 c -3.601457,0.7249685 -4.186109,2.8063299 -3.88209,0.5144938 0.304019,-2.29183615 -4.162723,-2.40876659 -4.162723,-2.40876659"
       id="path11" />
    <path
       style="fill:none;stroke:#008000;stroke-width:0.499999;stroke-dasharray:none"
       d="m 0.21047475,20.486209 c 2.99341875,-3.34421 3.90547585,-3.741773 5.63604615,-2.876488 1.7305702,0.865285 3.0168048,0.841899 4.2094951,0.257247 1.19269,-0.584652 3.811931,-2.338609 5.028008,-1.637026 1.216076,0.701582 2.853102,4.770761 2.853102,4.770761"
       id="path12" />
    <path
       style="fill:none;stroke:#008000;stroke-width:0.499999;stroke-dasharray:none"
       d="m 10.734212,20.626525 c 2.80633,-1.777342 3.835318,-1.590253 5.028008,0.163703"
       id="path13" />
  </g>
</svg>
