<?xml version="1.0" encoding="UTF-8" standalone="no"?>
<!-- Created with Inkscape (http://www.inkscape.org/) -->

<svg
   width="20mm"
   height="20mm"
   viewBox="0 0 20 20"
   version="1.1"
   id="svg1"
   inkscape:version="1.4.3 (0d15f75042, 2025-12-25)"
   sodipodi:docname="inf_03.svg"
   xmlns:inkscape="http://www.inkscape.org/namespaces/inkscape"
   xmlns:sodipodi="http://sodipodi.sourceforge.net/DTD/sodipodi-0.dtd"
   xmlns="http://www.w3.org/2000/svg"
   xmlns:svg="http://www.w3.org/2000/svg">
  <sodipodi:namedview
     id="namedview1"
     pagecolor="#505050"
     bordercolor="#eeeeee"
     borderopacity="1"
     inkscape:showpageshadow="0"
     inkscape:pageopacity="0"
     inkscape:pagecheckerboard="true"
     inkscape:deskcolor="#505050"
     inkscape:document-units="mm"
     inkscape:clip-to-page="false"
     showguides="true"
     inkscape:zoom="11.313709"
     inkscape:cx="23.909047"
     inkscape:cy="32.30594"
     inkscape:window-width="2057"
     inkscape:window-height="1214"
     inkscape:window-x="0"
     inkscape:window-y="0"
     inkscape:window-maximized="1"
     inkscape:current-layer="layer1">
    <sodipodi:guide
       position="9.9999997,19.999999"
       orientation="1,0"
       id="guide10"
       inkscape:locked="false" />
    <sodipodi:guide
       position="9.9999997,17.817367"
       orientation="1,0"
       id="guide11"
       inkscape:locked="false" />
  </sodipodi:namedview>
  <defs
     id="defs1">
    <inkscape:path-effect
       effect="offset"
       id="path-effect10"
       is_visible="true"
       lpeversion="1.3"
       linejoin_type="miter"
       unit="mm"
       offset="0"
       miter_limit="4"
       attempt_force_join="false"
       update_on_knot_move="true" />
  </defs>
  <g
     inkscape:label="Layer 1"
     inkscape:groupmode="layer"
     id="layer1">
    <rect
       style="fill:#ffcc00;stroke-width:0.464384"
       id="rect1"
       width="20"
       height="20"
       x="3.3306691e-16"
       y="5.5511151e-16"
       rx="0"
       ry="0" />
    <rect
       style="fill:#000000;stroke-width:0.264583"
       id="rect8"
       width="10.279849"
       height="6.6378455"
       x="4.8600755"
       y="5.3161502"
       ry="0.88112992" />
    <rect
       style="fill:#ffcc00;stroke-width:0.264583"
       id="rect9"
       width="9.1727476"
       height="5.750885"
       x="5.4136262"
       y="5.7596307"
       ry="0.88112992" />
    <path
       id="rect10"
       style="stroke-width:0.273339"
       d="m 5.5017086,11.953996 h 8.9861794 c 0.549932,0 0.711499,0.47017 0.992659,0.881129 l 1.567357,2.29094 c 0.455203,0.665351 -1.211379,0.52808 -1.761311,0.528677 l -10.7775435,0.01169 c -0.549933,5.97e-4 -1.7041246,-0.08915 -1.4419684,-0.510999 l 1.4419684,-2.320311 c 0.2621563,-0.421843 0.4427259,-0.881129 0.9926591,-0.881129 z"
       sodipodi:nodetypes="sssssssss" />
    <path
       id="rect10-0"
       style="fill:#ffcc00;stroke-width:0.102819"
       d="m 7.4124715,14.114431 5.1646525,0.0073 c 0.264267,3.75e-4 0.326538,0.05829 0.390814,0.222729 l 0.275145,0.703928 c 0.07056,0.18052 -0.476109,0.155809 -0.740376,0.155667 l -5.4445796,-0.0029 C 6.7938599,15.201033 6.4512186,15.214011 6.5246449,15.05708 l 0.3402778,-0.727262 c 0.073423,-0.156926 0.2832816,-0.215763 0.5475488,-0.215387 z"
       sodipodi:nodetypes="sssssssss" />
  </g>
</svg>
