<?xml version="1.0" encoding="UTF-8" standalone="no"?>
<!-- Created with Inkscape (http://www.inkscape.org/) -->

<svg
   width="20mm"
   height="20mm"
   viewBox="0 0 20 20"
   version="1.1"
   id="svg1"
   inkscape:version="1.4.3 (0d15f75042, 2025-12-25)"
   sodipodi:docname="infgeo_04.svg"
   xmlns:inkscape="http://www.inkscape.org/namespaces/inkscape"
   xmlns:sodipodi="http://sodipodi.sourceforge.net/DTD/sodipodi-0.dtd"
   xmlns="http://www.w3.org/2000/svg"
   xmlns:svg="http://www.w3.org/2000/svg">
  <sodipodi:namedview
     id="namedview1"
     pagecolor="#505050"
     bordercolor="#eeeeee"
     borderopacity="1"
     inkscape:showpageshadow="0"
     inkscape:pageopacity="0"
     inkscape:pagecheckerboard="true"
     inkscape:deskcolor="#505050"
     inkscape:document-units="mm"
     inkscape:clip-to-page="false"
     showguides="false"
     inkscape:zoom="5.6568543"
     inkscape:cx="24.130019"
     inkscape:cy="32.08497"
     inkscape:window-width="2057"
     inkscape:window-height="1214"
     inkscape:window-x="0"
     inkscape:window-y="0"
     inkscape:window-maximized="1"
     inkscape:current-layer="layer1" />
  <defs
     id="defs1">
    <inkscape:perspective
       sodipodi:type="inkscape:persp3d"
       inkscape:vp_x="0.38713733 : 13.930933 : 1"
       inkscape:vp_y="0 : 1000 : 0"
       inkscape:vp_z="18.034533 : 16.581335 : 1"
       inkscape:persp3d-origin="10 : 6.6666667 : 1"
       id="perspective5" />
  </defs>
  <g
     inkscape:label="Layer 1"
     inkscape:groupmode="layer"
     id="layer1">
    <rect
       style="display:inline;fill:#00aad4;stroke:#00d400;stroke-width:0;stroke-dasharray:none"
       id="rect32"
       width="20"
       height="20"
       x="1.7763568e-15"
       y="1.7763568e-15" />
    <rect
       style="fill:#2ad4ff;stroke:none;stroke-width:0;stroke-dasharray:none"
       id="rect15-5"
       width="2.1950457"
       height="12.211246"
       x="8.7461319"
       y="-16.267138"
       ry="0.97763759"
       transform="matrix(0.28035505,0.95989637,-0.93104118,0.36491414,0,0)" />
    <circle
       style="fill:#0044aa;stroke:#008000;stroke-width:0;stroke-dasharray:none"
       id="path13"
       cx="7.7844687"
       cy="7.2791886"
       r="3.3057077" />
    <path
       id="path14"
       style="fill:#0044aa;stroke:#008000;stroke-width:0;stroke-dasharray:none"
       d="M 7.1104431,2.8063236 A 4.5232347,4.5232347 0 0 0 6.7476842,2.8762974 C 6.579302,3.311282 6.6648717,4.4174056 6.3838205,4.5622976 6.1027692,4.7071897 5.2514657,3.9957613 4.7994664,3.8806055 A 4.5232347,4.5232347 0 0 0 4.5320928,4.1358257 C 4.6256111,4.5927925 5.2956511,5.476909 5.1375503,5.750747 4.9794495,6.024586 3.8785861,5.886463 3.4360821,6.033957 a 4.5232347,4.5232347 0 0 0 -0.087283,0.359444 c 0.3257275,0.333866 1.3674895,0.71535 1.382535,1.031193 0.015046,0.315844 -0.9857942,0.794935 -1.2783109,1.158251 a 4.5232347,4.5232347 0 0 0 0.1211652,0.349132 c 0.4545205,0.104764 1.5372039,-0.137509 1.7206189,0.120061 0.183415,0.25757 -0.399648,1.201589 -0.4493055,1.665376 a 4.5232347,4.5232347 0 0 0 0.2905755,0.228704 c 0.4390063,-0.157599 1.2189873,-0.946894 1.5125388,-0.829374 0.2935516,0.117521 0.3132579,1.227007 0.5222256,1.644016 a 4.5232347,4.5232347 0 0 0 0.3679148,0.03499 c 0.284111,-0.369926 0.5137302,-1.455275 0.8242176,-1.515117 0.310487,-0.05984 0.926782,0.862596 1.328029,1.10043 a 4.5232347,4.5232347 0 0 0 0.3285089,-0.16941 C 10.058522,10.74685 9.6647131,9.709606 9.8935591,9.491403 10.122405,9.273198 11.139942,9.715966 11.606076,9.699114 a 4.5232347,4.5232347 0 0 0 0.184877,-0.320406 c -0.218472,-0.41211 -1.110527,-1.071564 -1.03598,-1.378853 0.07455,-0.307288 1.169656,-0.48511 1.552682,-0.751297 a 4.5232347,4.5232347 0 0 0 -0.01768,-0.36902 C 11.883383,6.650962 10.776265,6.578413 10.672846,6.279602 10.569427,5.980791 11.39462,5.2393211 11.57293,4.8083108 A 4.5232347,4.5232347 0 0 0 11.358589,4.5070552 c -0.465624,0.027533 -1.4359759,0.5648509 -1.6845269,0.369388 -0.248551,-0.195463 0.04472,-1.2653112 -0.0383,-1.7243018 A 4.5232347,4.5232347 0 0 0 9.2925211,3.0147718 C 8.9156981,3.2896699 8.3897471,4.2664239 8.0749764,4.2363671 7.7602068,4.2063102 7.4284313,3.147568 7.1104431,2.8063236 Z" />
    <circle
       style="fill:#00aad4;stroke:none;stroke-width:0;stroke-dasharray:none"
       id="path15"
       cx="7.7844687"
       cy="7.2791886"
       r="1.7565801" />
    <circle
       style="fill:#0044aa;stroke:#008000;stroke-width:0;stroke-dasharray:none"
       id="path13-3"
       cx="9.2809353"
       cy="15.006103"
       r="3.3057077" />
    <path
       id="path14-1"
       style="fill:#0044aa;stroke:#008000;stroke-width:0;stroke-dasharray:none"
       d="m 8.6069101,10.533238 a 4.5232347,4.5232347 0 0 0 -0.3627592,0.06997 c -0.1683822,0.434984 -0.082813,1.541108 -0.3638637,1.686 C 7.5992359,12.4341 6.7479324,11.722671 6.2959331,11.607516 a 4.5232347,4.5232347 0 0 0 -0.2673736,0.25522 c 0.093518,0.456971 0.7635583,1.341087 0.6054575,1.614925 -0.1581008,0.273839 -1.2589642,0.135716 -1.7014682,0.28321 a 4.5232347,4.5232347 0 0 0 -0.087283,0.359444 c 0.3257275,0.333866 1.3674895,0.71535 1.382535,1.031193 0.015046,0.315844 -0.9857942,0.794935 -1.2783109,1.158251 a 4.5232347,4.5232347 0 0 0 0.1211652,0.349132 c 0.4545205,0.104764 1.5372039,-0.137509 1.7206189,0.120061 0.183415,0.25757 -0.399648,1.201589 -0.4493055,1.665376 a 4.5232347,4.5232347 0 0 0 0.2905755,0.228704 c 0.4390063,-0.157599 1.2189873,-0.946894 1.5125388,-0.829374 0.2935513,0.117521 0.3132583,1.227007 0.5222263,1.644016 a 4.5232347,4.5232347 0 0 0 0.367914,0.03499 c 0.284111,-0.369926 0.513731,-1.455275 0.824218,-1.515117 0.3104869,-0.05984 0.9267819,0.862596 1.3280289,1.10043 a 4.5232347,4.5232347 0 0 0 0.328509,-0.16941 c 0.03901,-0.464803 -0.354799,-1.502047 -0.125953,-1.72025 0.228846,-0.218205 1.246383,0.224563 1.712517,0.207711 a 4.5232347,4.5232347 0 0 0 0.184877,-0.320406 c -0.218472,-0.41211 -1.110527,-1.071564 -1.03598,-1.378853 0.07455,-0.307288 1.169656,-0.48511 1.552682,-0.751297 a 4.5232347,4.5232347 0 0 0 -0.01768,-0.36902 c -0.406592,-0.228576 -1.51371,-0.301125 -1.617129,-0.599936 -0.103419,-0.298811 0.721774,-1.040281 0.900084,-1.471291 a 4.5232347,4.5232347 0 0 0 -0.214341,-0.301256 c -0.465624,0.02753 -1.435976,0.564851 -1.684527,0.369388 -0.248551,-0.195463 0.04472,-1.265311 -0.0383,-1.724301 a 4.5232347,4.5232347 0 0 0 -0.343241,-0.13737 c -0.376823,0.274898 -0.9027739,1.251652 -1.2175449,1.221595 -0.314769,-0.03006 -0.646545,-1.088799 -0.964533,-1.430043 z" />
    <circle
       style="fill:#00aad4;stroke:none;stroke-width:0;stroke-dasharray:none"
       id="path15-9"
       cx="9.2809353"
       cy="15.006103"
       r="1.7565801" />
    <circle
       style="fill:#0044aa;stroke:#008000;stroke-width:0;stroke-dasharray:none"
       id="path13-9"
       cx="17.321831"
       cy="3.9036593"
       r="4.638474" />
    <path
       id="path14-7"
       style="fill:#0044aa;stroke:#008000;stroke-width:0;stroke-dasharray:none"
       d="m 16.376058,-2.3725369 a 6.3468728,6.3468728 0 0 0 -0.509013,0.098185 c -0.236269,0.610358 -0.1162,2.16243882 -0.510563,2.36574712 -0.394363,0.2033083 -1.588888,-0.7949475 -2.22312,-0.95653082 a 6.3468728,6.3468728 0 0 0 -0.375171,0.35811772 c 0.131222,0.6412026 1.071403,1.88176898 0.84956,2.26601158 -0.221842,0.3842425 -1.766542,0.1904322 -2.387451,0.3973917 a 6.3468728,6.3468728 0 0 0 -0.122473,0.504362 c 0.457052,0.4684699 1.918822,1.0037576 1.939933,1.4469398 0.02111,0.443183 -1.383238,1.11543 -1.793689,1.625224 a 6.3468728,6.3468728 0 0 0 0.170016,0.489893 c 0.63777,0.147001 2.15696,-0.19295 2.414323,0.168465 0.257362,0.361415 -0.560775,1.686036 -0.630453,2.336808 a 6.3468728,6.3468728 0 0 0 0.407727,0.320911 c 0.616002,-0.221139 1.710448,-1.328655 2.122351,-1.163753 0.411904,0.164901 0.439555,1.7217 0.732772,2.3068348 a 6.3468728,6.3468728 0 0 0 0.516248,0.04909 c 0.398656,-0.5190688 0.720851,-2.0419998 1.156518,-2.1259678 0.435667,-0.08397 1.300434,1.21037 1.863452,1.544091 a 6.3468728,6.3468728 0 0 0 0.460954,-0.237711 c 0.05474,-0.652199 -0.497843,-2.107629 -0.176733,-2.413806 0.32111,-0.306178 1.748889,0.315101 2.402954,0.291455 a 6.3468728,6.3468728 0 0 0 0.259415,-0.449585 c -0.306554,-0.57826 -1.55826,-1.503588 -1.453658,-1.934766 0.104603,-0.431178 1.641228,-0.680693 2.178679,-1.054199 A 6.3468728,6.3468728 0 0 0 23.643831,3.3428765 C 23.07331,3.0221493 21.519834,2.9203502 21.374719,2.5010674 21.229604,2.0817847 22.387492,1.0413752 22.637691,0.43659402 a 6.3468728,6.3468728 0 0 0 -0.300757,-0.4227132 c -0.653351,0.038634 -2.01492,0.7925825 -2.36368,0.5183146 -0.34876,-0.274268 0.06274,-1.77544832 -0.05374,-2.41949062 a 6.3468728,6.3468728 0 0 0 -0.481628,-0.1927531 c -0.528746,0.3857291 -1.266746,1.75628222 -1.708423,1.71410732 -0.441675,-0.042175 -0.907213,-1.52777152 -1.353405,-2.00659592 z" />
    <circle
       style="fill:#00aad4;stroke:none;stroke-width:0;stroke-dasharray:none"
       id="path15-3"
       cx="17.321831"
       cy="3.9036593"
       r="2.4647827" />
    <rect
       style="fill:#0066ff;stroke:none;stroke-width:0;stroke-dasharray:none"
       id="rect15"
       width="1.1943593"
       height="9.1075935"
       x="5.7203012"
       y="8.3151331"
       ry="0.72915781"
       transform="matrix(0.97047812,-0.24118916,0.18701933,0.98235623,0,0)" />
  </g>
</svg>
